<?xml version="1.0" encoding="iso-8859-1"?>
<!-- Generator: Adobe Illustrator 16.0.0, SVG Export Plug-In . SVG Version: 6.00 Build 0)  -->
<!DOCTYPE svg PUBLIC "-//W3C//DTD SVG 1.1//EN" "http://www.w3.org/Graphics/SVG/1.1/DTD/svg11.dtd">
<svg version="1.1" id="Capa_1" xmlns="http://www.w3.org/2000/svg" xmlns:xlink="http://www.w3.org/1999/xlink" x="0px" y="0px"
	 width="466.475px" height="466.476px" viewBox="0 0 466.475 466.476" style="enable-background:new 0 0 466.475 466.476;"
	 xml:space="preserve">
<g>
	<g>
		<path d="M386.203,51.854c-4.422,0-8.813,0.36-13.141,1.074c-14.696-22.383-40.001-36.352-67.164-36.352
			c-15.327,0-30.312,4.416-43.13,12.586c-13.992-8.262-29.82-12.586-46.324-12.586c-50.438,0-91.474,41.075-91.474,91.564
			c0,4.499,0.332,8.922,0.961,13.25c-8.277,7.981-12.322,18.538-12.835,33.102c-0.002,0.056-0.003,0.111-0.003,0.169l0.047,0.001
			l-0.03,31.192l-0.01,0.003c-0.22,0.064-0.437,0.145-0.646,0.238c-3.233,1.455-4.927,0.799-5.33,7.595
			c-0.457,7.741,0.888,28.19,9.237,33.292c1.251,1.283,2.076,4.788,2.57,8.688c0.924,7.297,1.972,15.567,6.088,20.981
			c9.372,12.327,6.91,31.403,6.701,32.886c-0.033,0.021-0.078,0.049-0.139,0.077c-5.774,2.593-7.292,7.644-8.399,11.336
			l-0.568,1.833c-1.495,4.816-2.908,9.371-4.854,13.694c-0.263,0.376-1.392,1.27-2.854,1.821l-4.267,1.637
			c-26.977,10.342-54.87,21.033-80.775,35.354C5.376,368.823,0.227,442.13,0.02,444.457c-0.125,1.397,0.344,2.783,1.292,3.818
			s2.286,1.625,3.689,1.625h178.672h178.675c1.402,0,2.741-0.59,3.688-1.625s1.416-2.421,1.292-3.818
			c-0.208-2.327-5.355-75.634-29.843-89.169c-25.905-14.32-53.799-25.013-80.774-35.354l-4.268-1.637
			c-1.463-0.553-2.592-1.445-2.854-1.821c-1.948-4.323-3.36-8.878-4.855-13.694l-0.567-1.833c-1.108-3.692-2.625-8.743-8.4-11.336
			c-0.061-0.028-0.105-0.056-0.138-0.077c-0.209-1.48-2.67-20.559,6.7-32.886c4.116-5.414,5.164-13.687,6.089-20.981
			c0.493-3.898,1.317-7.404,2.569-8.688c2.17-1.325,3.864-3.693,5.18-6.6c1.226,0.968,2.479,1.909,3.767,2.811
			c13.521,9.469,29.416,14.475,45.966,14.475c23.424,0,45.382-10.147,60.534-27.577c6.428,1.634,13.044,2.458,19.771,2.458
			c44.261,0,80.271-36.044,80.271-80.349C466.473,87.896,430.463,51.854,386.203,51.854z M386.203,185.449
			c-6.803,0-13.426-1.268-19.686-3.769l-10.223-4.083l-6.091,9.168c-9.901,14.904-26.465,23.802-44.306,23.802
			c-21.852,0-41.802-13.721-49.645-34.143l-2.011-5.235l0.005-16.524c-0.005-3.928-0.245-7.535-0.723-10.835
			c1.075,0.265,2.193,0.42,3.352,0.42c7.731,0,14-6.268,14-14c0-7.732-6.269-14-14-14c-5.395,0-10.068,3.055-12.406,7.525
			c-0.64-0.614-1.299-1.205-2.002-1.747c-3.5-2.695-7.52-5.218-11.405-7.658c-5.379-3.376-10.94-6.868-12.955-9.599
			c-4.397-5.964-18.997-6.608-25.069-6.608c-7.162,0-22.967,0.943-40.917,7.965c1.067-34.617,29.501-62.453,64.324-62.453
			c14.027,0,27.356,4.436,38.546,12.829l8.595,6.445l8.235-6.896c9.531-7.982,21.633-12.378,34.078-12.378
			c20.474,0,39.356,11.989,48.107,30.544l5.037,10.68l11.269-3.529c5.122-1.604,10.468-2.417,15.892-2.417
			c29.318,0,53.17,23.887,53.17,53.247C439.374,161.562,415.522,185.449,386.203,185.449z"/>
		<circle cx="358.493" cy="262.708" r="22.354"/>
		<circle cx="292.493" cy="284.284" r="14.355"/>
		<circle cx="301.875" cy="130.25" r="14"/>
		<circle cx="346.875" cy="130.25" r="14"/>
	</g>
</g>
<g>
</g>
<g>
</g>
<g>
</g>
<g>
</g>
<g>
</g>
<g>
</g>
<g>
</g>
<g>
</g>
<g>
</g>
<g>
</g>
<g>
</g>
<g>
</g>
<g>
</g>
<g>
</g>
<g>
</g>
</svg>
